<svg width="105" height="105" viewBox="0 0 105 105" fill="none" xmlns="http://www.w3.org/2000/svg">
<path d="M52.75 5.47998C26.69 5.47998 5.47998 26.7 5.47998 52.75C5.47998 78.8 26.7 100.02 52.75 100.02C78.8 100.02 100.02 78.8 100.02 52.75C100.02 26.7 78.8 5.47998 52.75 5.47998ZM52.68 9.67998C53.4882 9.70091 54.2563 10.0378 54.8205 10.6188C55.3847 11.1998 55.7003 11.9789 55.7 12.79C55.7 13.6148 55.3723 14.4058 54.7891 14.9891C54.2058 15.5723 53.4148 15.9 52.59 15.9C51.7652 15.9 50.9741 15.5723 50.3909 14.9891C49.8076 14.4058 49.48 13.6148 49.48 12.79C49.4798 12.3739 49.5631 11.962 49.725 11.5787C49.8869 11.1954 50.1241 10.8484 50.4225 10.5584C50.7209 10.2684 51.0744 10.0413 51.4622 9.89038C51.85 9.73948 52.2641 9.66794 52.68 9.67998ZM59.8 14.8C65.2596 15.8226 70.4312 18.0214 74.9556 21.2437C79.48 24.4661 83.2487 28.6347 86 33.46L82.33 41.74C81.7 43.17 82.35 44.85 83.77 45.49L90.83 48.62C91.049 50.8268 91.0758 53.0485 90.91 55.26H86.98C86.59 55.26 86.43 55.52 86.43 55.9V57.7C86.43 61.94 84.04 62.87 81.94 63.1C79.94 63.33 77.73 62.26 77.45 61.04C76.27 54.41 74.31 53 71.21 50.55C75.06 48.11 79.06 44.5 79.06 39.68C79.06 34.47 75.49 31.19 73.06 29.58C69.64 27.33 65.86 26.88 64.84 26.88H24.24C29.854 20.6084 37.379 16.3626 45.65 14.8L50.44 19.82C51.52 20.95 53.31 21 54.44 19.91L59.8 14.8ZM15.6 37.82C16.4091 37.8434 17.1772 38.1814 17.7411 38.7621C18.305 39.3428 18.6203 40.1205 18.62 40.93C18.62 41.7548 18.2923 42.5458 17.7091 43.1291C17.1258 43.7123 16.3348 44.04 15.51 44.04C14.6852 44.04 13.8941 43.7123 13.3109 43.1291C12.7276 42.5458 12.4 41.7548 12.4 40.93C12.3998 40.5139 12.4831 40.102 12.645 39.7187C12.8069 39.3354 13.0441 38.9884 13.3425 38.6984C13.6409 38.4084 13.9944 38.1813 14.3822 38.0304C14.7699 37.8795 15.1841 37.8079 15.6 37.82ZM89.75 37.96C90.5591 37.9834 91.3272 38.3214 91.8911 38.9021C92.455 39.4828 92.7703 40.2605 92.77 41.07C92.77 41.8948 92.4423 42.6858 91.8591 43.2691C91.2758 43.8523 90.4848 44.18 89.66 44.18C88.8352 44.18 88.0441 43.8523 87.4609 43.2691C86.8776 42.6858 86.55 41.8948 86.55 41.07C86.5498 40.6539 86.6331 40.242 86.795 39.8587C86.9569 39.4754 87.1941 39.1284 87.4925 38.8384C87.7909 38.5484 88.1444 38.3213 88.5322 38.1704C88.92 38.0195 89.3341 37.9479 89.75 37.96ZM21.46 38.46H26.88V62.9H15.94C14.5889 58.1554 14.1678 53.1944 14.7 48.29L21.4 45.31C22.83 44.67 23.48 43 22.84 41.57L21.46 38.46ZM44.08 38.72H56.99C57.66 38.72 61.7 39.49 61.7 42.52C61.7 45.03 58.6 45.93 56.05 45.93H44.07L44.08 38.72ZM44.08 56.28H53.97C54.87 56.28 58.8 56.54 60.05 61.56C60.44 63.1 61.31 68.12 61.9 69.73C62.49 71.53 64.88 75.13 67.43 75.13H83.57C82.4883 76.5785 81.3053 77.9486 80.03 79.23L73.46 77.82C71.93 77.49 70.42 78.47 70.09 80L68.53 87.28C63.5135 89.5524 58.0657 90.7154 52.5586 90.6895C47.0515 90.6636 41.6149 89.4495 36.62 87.13L35.06 79.85C34.73 78.32 33.23 77.34 31.7 77.67L25.27 79.05C24.0768 77.8191 22.9676 76.5095 21.95 75.13H53.22C53.57 75.13 53.81 75.07 53.81 74.74V63.68C53.81 63.36 53.57 63.29 53.22 63.29H44.07L44.08 56.28ZM29.65 81.61C30.4591 81.6334 31.2272 81.9714 31.7911 82.5521C32.355 83.1328 32.6703 83.9105 32.67 84.72C32.67 85.5448 32.3423 86.3358 31.7591 86.9191C31.1758 87.5023 30.3848 87.83 29.56 87.83C28.7352 87.83 27.9441 87.5023 27.3609 86.9191C26.7776 86.3358 26.45 85.5448 26.45 84.72C26.4498 84.3039 26.5331 83.892 26.695 83.5087C26.8569 83.1254 27.0941 82.7784 27.3925 82.4884C27.6909 82.1984 28.0444 81.9713 28.4322 81.8204C28.8199 81.6695 29.2341 81.5979 29.65 81.61ZM75.7 81.75C76.5091 81.7734 77.2772 82.1114 77.8411 82.6921C78.405 83.2728 78.7203 84.0505 78.72 84.86C78.72 85.6848 78.3923 86.4758 77.8091 87.0591C77.2258 87.6423 76.4348 87.97 75.61 87.97C74.7852 87.97 73.9941 87.6423 73.4109 87.0591C72.8276 86.4758 72.5 85.6848 72.5 84.86C72.4998 84.4439 72.5831 84.032 72.745 83.6487C72.9069 83.2654 73.1441 82.9184 73.4425 82.6284C73.7409 82.3384 74.0944 82.1113 74.4822 81.9604C74.87 81.8095 75.2841 81.7379 75.7 81.75Z" fill="black"/>
<path fill-rule="evenodd" clip-rule="evenodd" d="M97.38 52.75C97.38 64.5866 92.6779 75.9384 84.3082 84.3082C75.9384 92.6779 64.5866 97.38 52.75 97.38C40.9134 97.38 29.5616 92.6779 21.1918 84.3082C12.8221 75.9384 8.12 64.5866 8.12 52.75C8.12 40.9134 12.8221 29.5616 21.1918 21.1918C29.5616 12.8221 40.9134 8.12 52.75 8.12C64.5866 8.12 75.9384 12.8221 84.3082 21.1918C92.6779 29.5616 97.38 40.9134 97.38 52.75ZM96.54 48.44L103.5 52.75L96.54 57.06L102.52 62.65L94.86 65.52L99.64 72.17L91.55 73.49L94.95 80.95L86.76 80.66L88.64 88.64L80.66 86.76L80.95 94.95L73.49 91.55L72.17 99.64L65.52 94.86L62.65 102.52L57.06 96.54L52.75 103.5L48.44 96.54L42.85 102.52L39.98 94.86L33.33 99.64L32.01 91.55L24.55 94.95L24.84 86.76L16.86 88.64L18.74 80.66L10.55 80.95L13.95 73.49L5.86 72.17L10.64 65.52L2.98 62.65L8.96 57.06L2 52.75L8.96 48.44L2.98 42.85L10.64 39.98L5.86 33.33L13.95 32.01L10.55 24.55L18.74 24.84L16.86 16.86L24.84 18.74L24.55 10.55L32.01 13.95L33.33 5.86L39.98 10.64L42.85 2.98L48.44 8.96L52.75 2L57.06 8.96L62.65 2.98L65.52 10.64L72.17 5.86L73.49 13.95L80.95 10.55L80.66 18.74L88.64 16.86L86.76 24.84L94.95 24.55L91.55 32.01L99.64 33.33L94.86 39.98L102.52 42.85L96.54 48.44Z" fill="black" stroke="black" stroke-width="3" stroke-linecap="round" stroke-linejoin="round"/>
</svg>
